<?xml version="1.0" standalone="no"?>
<!DOCTYPE svg PUBLIC "-//W3C//DTD SVG 20010904//EN"
 "http://www.w3.org/TR/2001/REC-SVG-20010904/DTD/svg10.dtd">
<svg version="1.0" xmlns="http://www.w3.org/2000/svg"
 width="300.000000pt" height="324.000000pt" viewBox="0 0 300.000000 324.000000"
 preserveAspectRatio="xMidYMid meet">
<metadata>
Created by potrace 1.10, written by Peter Selinger 2001-2011
</metadata>
<g transform="translate(0.000000,324.000000) scale(0.100000,-0.100000)"
fill="#000000" stroke="none">
<path d="M1390 3223 c-8 -3 -42 -27 -75 -53 -85 -68 -168 -114 -292 -164 -198
-79 -262 -124 -277 -193 -5 -20 -20 -35 -54 -54 -71 -39 -186 -135 -278 -231
-118 -123 -214 -264 -279 -411 -33 -75 -19 -66 36 24 24 39 52 82 61 97 10 15
21 34 25 42 4 8 34 53 67 100 72 102 169 201 291 294 50 38 96 76 102 84 7 9
15 13 18 11 8 -9 -15 -126 -41 -206 -23 -70 -34 -86 -103 -158 -43 -44 -91
-97 -108 -118 -22 -27 -52 -48 -104 -71 -81 -35 -170 -89 -236 -143 -37 -30
-46 -45 -73 -128 -36 -114 -60 -247 -59 -324 1 -64 1 -65 38 119 11 58 27 126
35 152 8 25 12 57 9 70 -5 19 -4 21 8 12 8 -6 51 -26 96 -44 l81 -32 -14 -40
c-68 -192 -65 -511 7 -745 31 -101 154 -350 196 -395 11 -13 18 -29 16 -36
-15 -40 44 -102 96 -102 13 0 37 -14 54 -32 97 -97 316 -225 467 -272 269 -85
577 -81 832 10 135 49 299 143 394 226 29 26 43 31 76 29 42 -2 88 20 88 42 0
6 13 20 30 29 17 10 32 29 36 45 4 15 15 39 26 52 19 26 24 76 8 86 -6 4 -2
18 10 36 37 51 108 212 135 304 39 133 58 290 51 417 -7 112 -27 240 -49 304
-20 55 -27 28 -10 -36 40 -155 50 -336 28 -495 -9 -66 -21 -122 -27 -126 -5
-3 -9 -9 -8 -13 6 -25 -49 -196 -63 -196 -6 0 -7 -3 -4 -6 7 -8 -39 -99 -64
-127 -14 -15 -17 -16 -22 -3 -5 13 45 123 61 136 4 3 8 12 9 20 1 8 15 52 31
98 16 45 35 110 41 145 6 34 13 76 16 92 7 38 7 257 0 299 -3 17 -7 47 -10 66
-8 59 -25 124 -40 146 -13 21 -11 23 63 49 42 16 98 38 123 50 l47 22 5 -46
c8 -62 16 -110 27 -146 5 -16 13 -60 19 -97 19 -114 32 -125 26 -23 -8 145
-68 352 -148 511 -112 222 -349 483 -529 583 -34 19 -49 34 -54 54 -15 69 -79
114 -277 193 -126 51 -207 97 -296 167 l-65 52 -105 1 c-58 1 -113 0 -121 -3z
m183 -47 c18 -7 63 -39 102 -70 77 -62 177 -117 300 -166 118 -47 189 -87 207
-118 9 -15 21 -62 28 -106 6 -43 18 -96 26 -118 8 -22 14 -46 14 -53 0 -13
-195 -81 -328 -115 -193 -48 -450 -64 -643 -39 -165 21 -529 128 -529 154 0 7
6 31 14 53 8 22 20 75 26 118 7 44 19 91 28 106 18 31 74 63 185 107 155 62
267 125 356 203 65 56 146 73 214 44z m707 -414 c0 -4 37 -35 82 -67 123 -91
329 -301 311 -319 -3 -3 -2 -6 4 -6 10 0 113 -151 113 -165 0 -3 17 -32 38
-63 21 -31 42 -63 47 -71 4 -7 -29 12 -74 44 -45 31 -120 74 -167 95 -63 28
-94 48 -117 77 -16 21 -63 72 -103 113 -84 85 -113 144 -138 279 -19 99 -18
91 -6 91 6 0 10 -4 10 -8z m-1308 -317 c218 -63 323 -79 523 -79 232 1 396 29
624 108 81 28 107 33 114 24 6 -9 7 -8 4 4 -3 9 0 19 7 21 8 3 34 -38 73 -114
l60 -120 -36 -18 c-114 -58 -349 -138 -461 -157 -14 -2 -74 -13 -135 -25 -94
-18 -136 -20 -290 -15 -205 6 -367 35 -560 101 -119 40 -275 109 -275 121 0 4
6 15 14 23 18 20 67 113 89 168 l16 42 58 -25 c32 -14 110 -41 175 -59z m-336
-34 c-1 -16 -4 -27 -7 -25 -3 2 -17 -20 -30 -47 -23 -50 -34 -59 -94 -73 l-30
-7 35 36 c19 20 45 46 58 58 13 12 32 36 43 54 12 18 22 33 23 33 2 0 3 -13 2
-29z m1744 12 c0 -5 31 -42 69 -83 38 -41 68 -76 67 -77 -1 -2 -22 3 -46 10
-41 12 -46 17 -77 85 -18 39 -28 72 -23 72 6 0 10 -3 10 -7z m-1686 -182 c107
-51 293 -115 426 -145 l105 -25 -64 0 c-36 -1 -90 -8 -121 -17 -53 -15 -61
-14 -135 5 -135 34 -239 44 -374 38 -124 -6 -257 -31 -296 -56 -20 -13 -20
-13 0 -6 87 29 172 39 335 39 185 -1 258 -11 251 -35 -2 -8 -4 -34 -4 -59 0
-32 -8 -56 -27 -85 -68 -100 -89 -172 -92 -312 -2 -83 -4 -89 -15 -62 -6 16
-16 29 -21 29 -11 0 -42 154 -42 210 0 23 -5 50 -11 61 -6 11 -11 69 -12 129
-3 148 -17 152 -17 5 0 -93 -3 -116 -12 -107 -15 15 -50 15 -113 -2 -42 -11
-54 -19 -72 -52 -12 -21 -27 -63 -34 -92 -28 -134 59 -329 171 -387 41 -21
113 -30 148 -17 29 10 30 9 66 -61 l36 -70 -37 -49 c-32 -42 -42 -48 -73 -48
-45 0 -78 -23 -96 -66 -8 -19 -21 -34 -29 -34 -21 0 -49 -34 -56 -68 -5 -24
-9 -19 -47 56 -110 214 -154 471 -122 697 9 62 40 205 46 213 1 2 18 -1 38 -7
28 -7 43 -6 64 5 15 7 36 14 47 15 11 0 -11 9 -50 19 -38 10 -123 38 -189 62
l-118 43 43 38 c39 35 237 141 334 179 22 9 49 25 59 37 11 12 21 21 23 21 2
0 41 -18 87 -39z m1725 16 c15 -13 51 -34 81 -47 147 -61 293 -143 332 -187
17 -19 15 -20 -100 -62 -64 -23 -148 -50 -187 -61 -38 -10 -61 -19 -50 -19 11
-1 32 -8 47 -15 21 -11 36 -12 64 -5 20 6 37 9 38 7 1 -2 10 -35 19 -73 70
-300 39 -573 -98 -845 -42 -83 -48 -90 -68 -83 -44 15 -80 7 -107 -24 -14 -17
-35 -36 -48 -42 -13 -7 -30 -27 -37 -44 -12 -29 -20 -33 -116 -58 l-104 -27
-72 40 c-40 22 -73 43 -73 46 1 12 121 90 195 127 59 29 103 46 213 81 17 5
-11 59 -72 140 l-46 61 37 71 c35 69 36 70 65 60 35 -13 107 -4 148 17 112 58
199 253 171 387 -7 29 -22 71 -34 92 -18 33 -30 41 -72 52 -63 17 -98 17 -113
2 -9 -9 -12 15 -12 110 l0 122 53 0 c78 0 247 -28 273 -45 13 -8 25 -11 29 -6
8 14 -3 18 -96 41 -108 27 -308 37 -420 21 -129 -18 -200 -38 -361 -102 -215
-85 -334 -110 -355 -76 -13 22 -116 95 -163 116 -25 11 -63 22 -85 25 -47 7
-38 2 24 -14 33 -9 41 -14 30 -21 -11 -7 -11 -9 4 -9 44 0 172 -98 153 -117
-14 -15 -196 17 -290 52 -137 49 -139 51 -86 66 25 6 81 12 125 12 78 1 79 1
31 10 -108 21 -257 -30 -359 -122 -42 -40 -68 -75 -100 -139 l-42 -85 0 -116
c0 -110 2 -119 33 -185 18 -38 35 -67 38 -64 2 3 -4 21 -15 39 -47 80 -63 217
-37 314 30 114 113 229 204 282 49 29 35 31 192 -27 75 -28 220 -60 261 -58
62 4 70 -1 97 -59 36 -79 42 -234 13 -317 -44 -125 -144 -228 -269 -277 -44
-18 -78 -23 -152 -23 -119 -1 -184 20 -243 77 -23 22 -45 40 -49 39 -12 -3
-56 60 -85 123 -25 54 -28 71 -28 170 0 106 1 113 37 188 57 120 163 212 283
249 63 19 210 27 318 17 264 -25 667 55 917 180 41 21 79 39 84 39 6 1 21 -9
35 -21z m-18 -194 c2 -64 -3 -222 -8 -241 -4 -19 -8 -21 -15 -10 -7 9 -8 7 -3
-7 8 -23 8 -25 2 -80 -9 -83 -19 -135 -26 -131 -3 2 -6 -14 -5 -35 0 -22 -3
-42 -8 -45 -5 -3 -8 -2 -7 3 1 4 1 15 -1 23 -1 11 -4 9 -9 -5 -6 -14 -10 0
-16 50 -4 39 -13 85 -21 103 -7 18 -13 35 -13 37 -1 7 -34 59 -42 65 -6 5 -31
75 -35 100 -1 8 -5 30 -8 48 -3 21 -1 32 7 32 9 0 9 2 1 8 -6 4 -13 24 -16 44
l-4 37 61 9 c33 5 84 10 113 11 43 1 52 -2 53 -16z m-1463 -34 l25 -10 -24
-16 c-13 -9 -40 -31 -59 -50 l-36 -33 1 66 0 65 34 -6 c18 -3 45 -11 59 -16z
m1219 -57 c1 -85 26 -164 70 -229 38 -55 53 -124 53 -241 0 -96 -3 -110 -34
-182 -97 -224 -265 -401 -455 -481 -280 -117 -586 -58 -816 155 -33 31 -61 56
-63 56 -2 0 -1 -11 2 -24 4 -15 1 -26 -6 -28 -16 -6 110 -116 184 -161 35 -21
71 -36 81 -33 9 2 15 0 12 -4 -3 -5 4 -11 15 -15 11 -3 20 -11 20 -17 0 -6 14
-33 30 -60 17 -27 28 -53 25 -58 -3 -5 40 -54 96 -109 77 -75 99 -103 92 -114
-7 -13 -22 -7 -88 39 -44 31 -107 69 -140 86 -75 38 -72 34 -46 55 l22 18 -39
46 c-55 67 -147 145 -219 187 -35 21 -66 46 -69 57 -4 11 -13 28 -22 38 -14
16 -13 21 16 62 17 25 34 56 38 70 3 14 10 27 14 30 5 3 6 13 4 23 -2 9 4 27
13 39 l18 23 54 -26 c164 -79 371 -42 502 91 92 93 136 189 147 320 l7 80 50
18 c39 14 73 17 160 14 l110 -4 -55 14 c-68 17 -195 11 -238 -11 -37 -19 -42
-20 -42 -3 0 16 50 46 104 63 33 10 36 13 15 13 -14 1 -47 -10 -73 -24 -26
-14 -48 -25 -50 -25 -2 0 -8 17 -14 39 -7 21 -23 55 -37 75 -14 20 -25 39 -25
41 0 3 13 5 28 5 45 0 158 33 272 80 115 47 237 89 260 90 12 0 15 -16 17 -78z
m-564 -150 c86 -160 72 -342 -39 -492 -76 -103 -224 -180 -348 -180 -54 0
-165 25 -180 40 -5 5 8 4 30 -2 22 -6 78 -8 127 -5 76 4 99 10 163 42 133 65
221 176 250 317 26 120 2 243 -66 345 l-33 48 35 -33 c20 -19 47 -55 61 -80z
m1108 88 c-26 -22 -41 -25 -41 -10 0 6 10 15 23 20 36 14 44 11 18 -10z
m-2377 -26 c13 -5 13 -9 2 -27 -39 -61 -73 -362 -54 -477 24 -152 34 -202 55
-260 13 -36 25 -72 28 -81 5 -23 44 -98 67 -132 20 -27 19 -57 -2 -57 -10 0
-49 57 -49 73 -1 4 -12 30 -26 57 -14 27 -25 51 -24 52 1 2 -6 21 -15 42 -21
51 -47 151 -53 201 -2 22 -8 63 -14 91 -12 64 -4 256 16 359 8 44 15 81 15 83
0 2 6 0 13 -4 9 -6 9 -4 1 7 -15 18 -6 79 11 79 7 0 20 -3 29 -6z m248 -62 c5
-5 11 -32 15 -61 6 -52 6 -52 -20 -46 -15 4 -36 1 -54 -9 -32 -17 -16 -22 20
-5 35 16 67 -3 67 -40 0 -16 11 -73 25 -127 14 -53 23 -100 20 -102 -2 -2 -15
-2 -28 2 -35 8 -43 37 -17 58 15 12 17 18 8 18 -18 0 -38 -20 -38 -39 0 -38
61 -66 86 -41 7 7 16 4 29 -10 10 -11 15 -20 10 -20 -4 0 -14 8 -22 18 -13 15
-14 14 -8 -13 14 -60 15 -60 -51 -60 -51 0 -66 4 -98 29 -150 114 -169 397
-31 457 22 9 74 4 87 -9z m1976 -15 c81 -73 82 -234 3 -358 -44 -71 -92 -102
-161 -107 -31 -2 -60 0 -63 5 -4 5 -1 25 5 45 9 29 14 34 35 30 27 -5 63 22
63 48 0 20 -19 40 -38 40 -9 0 -7 -6 8 -18 26 -21 18 -50 -17 -58 -13 -4 -26
-4 -28 -2 -3 2 6 49 20 104 14 54 25 111 25 127 0 35 36 55 68 38 11 -6 27
-11 34 -11 7 1 0 8 -15 16 -17 9 -39 13 -53 10 -20 -5 -24 -3 -24 18 0 50 13
88 34 97 30 12 76 2 104 -24z m-1780 -401 c21 -44 50 -85 86 -120 54 -52 54
-52 38 -79 -9 -15 -26 -27 -37 -27 -13 0 -5 -7 23 -21 23 -12 42 -27 42 -35 0
-9 -11 -6 -36 11 -20 14 -40 25 -44 25 -4 0 -31 48 -60 107 -59 118 -70 174
-61 319 l5 79 6 -95 c5 -79 12 -108 38 -164z m182 -198 c0 -5 -8 -20 -18 -32
-14 -18 -21 -21 -34 -12 -15 9 -15 12 3 38 19 25 49 30 49 6z m-130 -47 c0 -6
-35 -57 -94 -138 -13 -18 -27 -29 -32 -25 -4 4 -1 -4 8 -18 15 -24 14 -27 -22
-68 l-37 -42 -28 40 c-53 77 -22 138 64 126 24 -3 42 -4 39 -1 -3 3 13 24 34
47 21 23 36 48 33 56 -3 8 -3 17 0 21 5 9 35 10 35 2z m1394 -15 c-3 -8 17
-47 45 -87 28 -40 51 -75 51 -79 0 -4 -19 -12 -42 -19 -62 -19 -199 -84 -255
-122 -65 -44 -140 -111 -186 -167 l-39 -46 21 -18 c21 -17 20 -18 -88 -73 -60
-30 -145 -80 -190 -110 -45 -30 -81 -52 -81 -49 0 18 32 59 98 126 54 55 79
74 85 65 6 -9 7 -8 5 3 -3 8 -1 19 4 25 21 24 90 120 105 146 11 18 36 36 71
50 114 46 244 150 333 265 22 29 38 58 34 64 -7 11 11 40 26 40 5 0 6 -6 3
-14z m-1341 -29 l27 -22 -30 -52 c-24 -42 -33 -51 -52 -47 -22 4 -22 4 1 -6
13 -6 22 -13 19 -16 -9 -8 -98 17 -98 28 0 5 5 6 12 2 7 -4 8 -3 4 4 -7 11 70
132 83 132 3 0 18 -10 34 -23z m-29 -179 c24 -37 30 -99 13 -140 -20 -49 -89
-122 -130 -139 -74 -31 -73 -37 19 -117 117 -102 179 -142 220 -142 19 0 34
-3 34 -7 0 -20 73 -55 117 -58 26 -2 61 -8 77 -14 43 -17 210 -38 312 -40 86
-2 315 31 339 49 6 4 19 4 30 0 23 -8 78 20 118 62 18 19 35 28 50 26 13 -1
36 5 50 15 15 10 33 15 40 11 7 -4 9 -4 5 1 -8 8 33 45 50 45 5 0 17 9 28 21
26 28 85 52 98 39 9 -9 -3 -23 -64 -73 -70 -58 -319 -184 -334 -170 -3 4 -6 2
-6 -4 0 -5 -24 -15 -52 -22 -29 -6 -64 -14 -78 -17 -165 -39 -385 -42 -530 -8
-90 20 -220 62 -237 76 -7 6 -13 8 -13 5 0 -4 -36 12 -80 34 -91 46 -149 87
-264 185 -14 12 -30 24 -37 26 -13 4 104 200 124 207 17 6 57 49 57 61 0 7
-14 0 -31 -14 -35 -29 -61 -33 -79 -11 -18 22 -6 55 36 98 44 45 94 51 118 15z
m-257 -35 c17 -27 43 -59 57 -72 31 -29 32 -42 6 -66 -18 -16 -23 -17 -46 -4
-36 19 -104 103 -104 127 0 19 35 62 50 62 4 0 21 -21 37 -47z m383 -78 c95
-63 98 -68 54 -94 -20 -12 -38 -21 -39 -19 -16 18 -95 141 -95 148 0 16 9 12
80 -35z m1544 1 c52 -30 73 -65 57 -95 -12 -21 -31 -29 -31 -11 0 13 -82 67
-113 76 -33 8 -34 18 -5 38 30 21 44 20 92 -8z m-1910 -96 c20 0 10 -27 -15
-41 -26 -14 -93 24 -120 68 -20 31 -20 35 -5 58 l17 25 53 -55 c30 -30 61 -55
70 -55z m69 20 c-18 -16 -34 -40 -36 -54 -1 -14 -7 -29 -12 -33 -4 -5 -5 -2 0
6 5 10 4 12 -4 7 -6 -4 -8 -12 -5 -18 9 -15 -17 -58 -35 -58 -9 0 -31 9 -48
20 -25 15 -32 26 -31 45 2 25 12 32 22 16 4 -5 0 -12 -6 -15 -7 -3 7 -2 32 1
53 7 66 15 74 48 4 14 11 25 16 25 6 0 20 11 32 25 12 14 24 22 27 19 3 -3 -8
-19 -26 -34z m340 -123 c14 -5 15 -2 6 21 -11 28 -4 38 52 67 28 15 30 14 93
-62 22 -26 10 -49 -27 -56 -20 -4 -19 -5 11 -18 61 -26 38 -64 -64 -107 -115
-48 -121 -48 -189 -3 -87 58 -113 83 -96 89 8 3 33 22 55 42 l40 38 -26 30
c-22 26 -28 29 -38 17 -7 -8 -33 -28 -58 -45 -25 -16 -42 -30 -38 -30 14 0 51
23 79 49 l29 26 19 -24 c22 -27 18 -35 -42 -76 l-40 -28 -34 33 c-40 39 -42
46 -15 55 28 9 123 91 138 121 13 24 13 24 71 -54 32 -44 66 -82 74 -85z m740
139 c-10 -13 -43 -57 -75 -97 -31 -41 -65 -82 -76 -92 -20 -18 -20 -17 -37 33
-17 51 -17 52 5 75 12 13 20 28 16 33 -3 5 27 15 65 22 43 7 78 19 88 30 24
27 36 24 14 -4z m680 1 c81 -35 118 -94 81 -132 -16 -15 -19 -14 -48 13 -34
32 -106 72 -131 72 -19 0 -19 10 1 38 17 25 50 28 97 9z m-1085 -27 c40 -8 70
-19 66 -23 -4 -4 3 -18 15 -31 l22 -23 -22 -70 -22 -71 -35 42 c-30 35 -110
150 -136 195 -7 10 -3 11 15 5 13 -4 57 -15 97 -24z m216 2 c6 -10 -19 -60
-39 -81 -19 -20 -58 -6 -72 26 -17 37 -16 51 5 56 30 8 101 7 106 -1z m448
-98 c-24 -11 -24 -12 -6 -13 12 -1 61 6 109 14 48 9 89 14 91 12 2 -2 -1 -19
-6 -38 -15 -51 -13 -71 8 -67 10 2 16 11 14 23 -3 16 -1 17 11 6 13 -10 16 -7
22 21 14 64 33 88 68 88 33 0 109 -41 135 -73 11 -13 10 -19 -8 -37 -24 -24
-62 -21 -117 10 -27 16 -33 17 -44 4 -37 -45 -229 -164 -265 -164 -18 0 -174
52 -191 64 0 0 -4 17 -8 37 -6 35 -5 37 27 48 l33 12 -32 14 c-18 8 -33 18
-33 22 0 4 19 29 41 56 l41 47 69 -37 69 -37 -28 -12z m240 23 c-12 -13 -22
-33 -22 -45 0 -11 -5 -24 -11 -27 -6 -4 -8 -13 -5 -21 3 -8 1 -14 -4 -14 -24
0 5 103 33 117 32 16 33 15 9 -10z m-716 -44 c3 -10 12 -31 20 -47 15 -29 14
-30 -29 -74 l-45 -45 -25 19 c-36 26 -38 37 -16 80 10 21 19 49 19 61 0 20 5
23 35 23 25 0 37 -5 41 -17z m-181 -165 c44 -30 81 -61 83 -70 5 -24 -88 -33
-178 -18 -39 7 -74 10 -76 7 -5 -4 89 -22 153 -30 19 -2 20 -4 8 -20 -13 -18
-16 -18 -97 -1 -46 9 -84 18 -86 19 -2 2 17 102 34 183 l4 22 38 -19 c20 -11
73 -44 117 -73z m455 35 c24 -124 33 -109 -67 -121 -168 -21 -207 -23 -232 -9
-23 14 -22 15 45 57 73 46 224 130 236 130 4 0 12 -26 18 -57z m-662 -82 c-6
-28 -15 -51 -18 -51 -7 0 -69 20 -110 36 -9 3 10 15 50 30 36 14 69 29 74 34
16 16 17 5 4 -49z m752 19 c30 -12 62 -23 70 -27 9 -3 -3 -12 -35 -23 -67 -25
-72 -24 -79 8 -4 15 -9 35 -12 45 -7 21 -10 21 56 -3z m-63 -75 c2 -6 -35 -19
-84 -29 -105 -22 -293 -34 -293 -19 0 23 29 31 135 37 61 4 128 11 150 16 50
10 87 8 92 -5z m-349 -6 c-15 -6 -30 -19 -33 -30 -6 -17 -14 -19 -56 -17 -27
2 -49 5 -49 7 0 3 10 15 22 28 18 19 31 23 82 22 52 0 57 -2 34 -10z"/>
<path d="M1375 2963 c-78 -67 -193 -135 -296 -174 l-54 -20 73 5 c122 8 230
70 292 166 18 28 31 52 29 54 -2 2 -22 -12 -44 -31z m-39 -62 c-50 -51 -127
-94 -186 -105 -32 -6 -31 -4 15 17 57 27 165 96 190 120 9 10 19 17 23 17 3 0
-15 -22 -42 -49z"/>
<path d="M2240 2472 c0 -19 54 -123 79 -152 17 -19 16 -14 -5 19 -15 25 -37
68 -50 95 -13 28 -24 45 -24 38z"/>
<path d="M703 2373 c-24 -41 -36 -69 -27 -62 16 13 78 128 72 134 -2 2 -22
-31 -45 -72z"/>
<path d="M1082 1881 c-161 -56 -234 -286 -140 -439 28 -46 32 -35 5 19 -32 63
-31 193 1 264 30 65 56 93 117 121 110 52 207 38 288 -41 46 -46 87 -130 87
-180 0 -13 5 -27 11 -30 19 -13 -2 87 -32 152 -62 130 -195 183 -337 134z"/>
<path d="M1183 1670 c-12 -5 -29 -22 -37 -39 -24 -46 -20 -85 13 -120 40 -43
100 -44 142 -2 79 80 -12 204 -118 161z m42 -45 c0 -27 -3 -30 -30 -30 -21 0
-31 5 -33 18 -5 25 17 49 42 45 16 -2 21 -10 21 -33z m85 -53 c0 -34 0 -35
-20 -17 -11 10 -17 21 -15 26 3 4 1 10 -4 13 -5 3 -11 -1 -15 -9 -3 -8 -10
-15 -16 -15 -6 0 -4 7 5 16 9 9 13 24 10 32 -3 8 0 19 7 24 20 12 48 -29 48
-70z m-120 -12 c30 -30 60 -39 60 -20 0 6 9 10 20 10 13 0 20 -7 20 -19 0 -23
-23 -34 -40 -18 -10 9 -11 9 -6 -1 12 -20 -20 -25 -52 -8 -35 18 -37 21 -46
59 -8 35 6 35 44 -3z"/>
<path d="M1444 1534 c-3 -10 -10 -29 -15 -41 -5 -14 -5 -23 0 -23 11 0 35 69
27 77 -3 3 -8 -3 -12 -13z"/>
<path d="M1934 1542 c-62 -45 -75 -70 -15 -29 83 57 141 49 170 -23 7 -18 10
-20 10 -7 1 26 -25 73 -44 81 -37 14 -83 5 -121 -22z"/>
<path d="M1965 1397 c-22 -34 -76 -98 -120 -142 -131 -131 -276 -192 -435
-182 -52 3 -67 2 -50 -5 40 -15 180 -10 240 8 147 44 277 154 380 322 46 75
33 74 -15 -1z"/>
<path d="M1214 605 c-4 -10 -1 -21 7 -26 20 -12 34 -5 34 17 0 24 -33 31 -41
9z"/>
<path d="M1744 605 c-4 -9 -2 -21 3 -26 14 -14 45 1 41 20 -4 22 -37 26 -44 6z"/>
<path d="M824 649 c-10 -17 13 -36 27 -22 12 12 4 33 -11 33 -5 0 -12 -5 -16
-11z"/>
<path d="M1600 694 c0 -5 6 -18 13 -28 12 -17 14 -16 37 4 22 18 22 19 3 8
-20 -11 -25 -10 -37 7 -9 11 -16 15 -16 9z"/>
<path d="M1280 716 c0 -3 21 -19 47 -37 44 -31 47 -31 60 -14 7 11 13 24 13
29 0 6 -7 3 -15 -8 -14 -18 -16 -18 -60 8 -25 15 -45 25 -45 22z"/>
<path d="M10 1378 c0 -149 57 -356 150 -543 152 -306 369 -523 675 -675 189
-94 399 -151 544 -149 l56 1 -75 14 c-41 8 -89 19 -106 24 -17 6 -41 10 -55
10 -13 0 -49 9 -79 19 -30 10 -76 24 -102 32 -27 7 -48 17 -48 22 0 4 -4 5
-10 2 -5 -3 -10 -1 -10 6 0 7 -3 9 -6 6 -16 -16 -276 135 -369 213 -56 47
-205 197 -205 206 0 5 -10 21 -22 34 -34 37 -88 117 -88 128 0 6 -4 12 -9 14
-15 5 -101 179 -101 204 0 16 16 36 51 64 28 22 55 38 60 34 5 -3 9 0 9 5 0
20 -19 11 -74 -34 -31 -25 -59 -45 -64 -45 -8 0 -38 85 -47 132 -3 12 -9 35
-14 52 -15 45 -40 199 -35 208 3 4 1 8 -3 8 -5 0 -10 12 -11 27 -4 49 -12 37
-12 -19z"/>
<path d="M2982 1409 c-1 -4 -9 -42 -18 -85 -20 -105 -42 -199 -59 -254 -7 -25
-16 -57 -19 -72 -8 -34 -22 -35 -55 -6 -25 22 -25 22 1 -7 l27 -30 -19 -42
c-10 -23 -26 -59 -36 -80 -64 -140 -252 -372 -394 -485 -58 -46 -147 -108
-156 -108 -3 0 -24 -13 -47 -29 -23 -16 -45 -29 -49 -30 -5 -1 -32 -12 -61
-25 -53 -23 -108 -43 -143 -51 -10 -2 -45 -13 -76 -24 -31 -11 -73 -22 -93
-25 -62 -10 -190 -38 -194 -42 -10 -9 92 -3 170 11 189 33 395 113 556 217
280 182 501 469 608 791 38 115 69 283 62 342 -2 22 -4 37 -5 34z"/>
</g>
</svg>
